<?xml version="1.0" encoding="UTF-8" standalone="no"?>
<!-- Creator: CorelDRAW X7 -->
<svg xmlns:dc="http://purl.org/dc/elements/1.1/" xmlns:cc="http://creativecommons.org/ns#" xmlns:rdf="http://www.w3.org/1999/02/22-rdf-syntax-ns#" xmlns:svg="http://www.w3.org/2000/svg" xmlns="http://www.w3.org/2000/svg" xmlns:sodipodi="http://sodipodi.sourceforge.net/DTD/sodipodi-0.dtd" xmlns:inkscape="http://www.inkscape.org/namespaces/inkscape" xml:space="preserve" width="186.717mm" height="50mm" version="1.1" style="clip-rule:evenodd;fill-rule:evenodd;image-rendering:optimizeQuality;shape-rendering:geometricPrecision;text-rendering:geometricPrecision" viewBox="0 0 18672 4999.6909" id="svg17" sodipodi:docname="aaaa_1.svg" inkscape:version="0.92.3 (2405546, 2018-03-11)"><title id="title28">Tiibetan banner design </title><metadata id="metadata21"><rdf:RDF><cc:Work rdf:about=""><dc:format>image/svg+xml</dc:format><dc:type rdf:resource="http://purl.org/dc/dcmitype/StillImage"/><dc:title>Tiibetan banner design </dc:title><cc:license rdf:resource="http://creativecommons.org/licenses/by-sa/4.0/"/><dc:description>Tiibetan banner design </dc:description><dc:date>2018-08-27</dc:date><dc:creator><cc:Agent><dc:title>Christopher J. Fynn</dc:title></cc:Agent></dc:creator><dc:rights><cc:Agent><dc:title>Christopher J. Fynn</dc:title></cc:Agent></dc:rights><dc:publisher><cc:Agent><dc:title>Christopher J. Fynn</dc:title></cc:Agent></dc:publisher></cc:Work><cc:License rdf:about="http://creativecommons.org/licenses/by-sa/4.0/"><cc:permits rdf:resource="http://creativecommons.org/ns#Reproduction"/><cc:permits rdf:resource="http://creativecommons.org/ns#Distribution"/><cc:requires rdf:resource="http://creativecommons.org/ns#Notice"/><cc:requires rdf:resource="http://creativecommons.org/ns#Attribution"/><cc:permits rdf:resource="http://creativecommons.org/ns#DerivativeWorks"/><cc:requires rdf:resource="http://creativecommons.org/ns#ShareAlike"/></cc:License></rdf:RDF></metadata><sodipodi:namedview pagecolor="#ffffff" bordercolor="#666666" borderopacity="1" objecttolerance="10" gridtolerance="10" guidetolerance="10" inkscape:pageopacity="0" inkscape:pageshadow="2" inkscape:window-width="1920" inkscape:window-height="1001" id="namedview19" showgrid="false" inkscape:zoom="3.934817" inkscape:cx="199.18985" inkscape:cy="115.28904" inkscape:window-x="-9" inkscape:window-y="-9" inkscape:window-maximized="1" inkscape:current-layer="svg17"/>
 <defs id="defs4"><style type="text/css" id="style2">
   <![CDATA[
    .fil1 {fill:none}
    .fil0 {fill:black;fill-rule:nonzero}
   ]]>
  </style></defs>
 <g id="_2838328532016" transform="translate(0,-16.310382)">
   <path style="fill:#000000;fill-rule:nonzero" inkscape:connector-curvature="0" id="path7" d="m 7685,4447 h -157 c -851,0 -1735,140 -2218,216 -182,30 -309,51 -356,51 -55,0 -76,-34 -76,-89 l 127,-30 c 893,-207 1655,-258 2570,-258 h 110 v -38 h -4 -123 c -817,0 -1550,29 -2557,258 l -131,30 -89,-297 c 110,-38 203,-232 216,-313 12,-89 17,-288 139,-313 9,-4 9,-4 9,-13 0,-68 -76,-101 -136,-101 h -8 c -25,-34 -38,-68 -72,-102 13,-4 30,-9 63,-17 860,-152 1706,-203 2583,-203 h 110 v -34 h -144 c -1156,0 -1689,63 -2625,224 -8,0 -12,-4 -17,-4 -4,-4 -72,-59 -101,-76 834,-182 1731,-250 2756,-250 h 131 v -34 h -182 c -982,0 -1444,38 -2096,136 9,-21 9,-30 9,-47 0,-21 -13,-97 -13,-97 l -148,-741 c 0,-21 -4,-38 -9,-59 0,-72 -21,-170 -72,-225 h -118 c -673,0 -1207,229 -1452,377 -152,93 -415,258 -415,453 0,186 174,377 339,453 63,165 254,318 440,318 140,0 190,-106 296,-183 l 9,13 c -59,34 -98,85 -98,140 0,8 5,17 5,30 -242,71 -364,97 -673,97 -263,0 -551,-72 -754,-241 -17,-51 -59,-94 -89,-106 -68,-93 -110,-220 -110,-339 0,-76 30,-207 59,-258 21,55 68,118 127,140 -21,16 -38,50 -38,67 -55,17 -84,68 -84,123 0,80 72,161 118,161 17,0 38,0 59,8 51,43 110,77 157,77 144,0 267,-140 267,-293 0,-71 -38,-156 -93,-211 29,-38 46,-51 46,-89 0,-9 -4,-17 -4,-25 51,-26 85,-81 85,-136 0,-72 -51,-114 -102,-157 h 8 c 85,0 140,-55 166,-148 80,0 152,-51 152,-139 0,-64 -42,-115 -89,-132 -13,-59 -76,-186 -241,-186 -110,0 -242,97 -242,207 0,64 47,127 115,127 25,0 67,-16 67,-46 0,-17 -12,-30 -12,-47 0,-25 34,-29 51,-29 38,0 80,55 80,89 0,84 -178,114 -262,114 -56,0 -140,8 -199,30 12,-51 21,-119 21,-136 0,-152 -47,-279 -102,-415 -13,-29 -25,-59 -25,-72 0,-38 21,-76 55,-76 46,0 97,51 97,85 0,25 -4,55 -25,55 -9,0 -21,-4 -30,-4 -25,0 -34,21 -34,46 0,64 51,119 110,119 157,0 237,-119 237,-242 0,-114 -101,-300 -288,-300 -50,0 -97,8 -152,29 -21,-165 -123,-317 -326,-317 -101,0 -135,59 -212,59 -42,0 -118,-25 -118,-59 0,-34 25,-55 42,-55 43,0 30,72 81,72 46,0 97,-68 97,-110 0,-106 -97,-161 -216,-161 -118,0 -220,114 -220,245 0,55 21,115 64,161 -314,21 -445,229 -707,229 -102,0 -187,-64 -216,-114 -5,-5 -5,-9 -5,-13 26,13 43,13 60,13 -5,8 -5,8 -5,21 0,34 43,51 77,51 50,0 105,-47 105,-98 0,-17 -4,-34 -4,-55 0,-46 43,-123 85,-123 21,0 55,26 55,43 0,25 -34,42 -51,46 -21,5 -42,43 -42,64 0,59 46,93 118,93 98,0 157,-119 157,-203 0,-115 -89,-233 -203,-233 -26,0 -47,4 -68,13 17,-39 30,-81 30,-123 0,-123 -93,-225 -216,-225 -98,0 -174,39 -186,132 C 734,582 658,574 560,574 c -55,0 -101,-9 -101,-43 0,-25 12,-46 29,-46 26,0 43,59 72,59 34,0 68,-38 68,-76 0,-93 -93,-136 -157,-136 -34,0 -63,9 -93,30 -13,-51 -42,-81 -101,-81 -17,0 -43,5 -64,5 -19,0 -19,-14 -28,-22 h -30 c -20,12 -31,47 -31,85 0,55 13,123 47,123 4,0 8,0 17,-4 -5,12 -9,29 -9,42 0,55 30,119 72,152 -30,17 -63,55 -63,98 0,84 42,63 72,118 33,89 33,187 160,187 60,0 144,-51 144,-140 0,-34 -38,-72 -63,-72 -13,0 -26,21 -47,21 -21,0 -29,-30 -29,-42 0,-43 29,-64 63,-64 64,0 153,55 153,148 0,9 0,17 -5,26 -34,55 -50,80 -72,169 -38,9 -72,34 -84,72 -9,-4 -17,-8 -21,-8 -64,0 -132,63 -132,131 0,51 47,123 85,131 17,64 42,123 131,136 0,8 0,12 0,21 0,8 0,12 0,21 -12,42 -34,85 -34,127 0,102 106,199 204,199 8,0 25,-4 33,-4 17,12 39,21 64,21 85,0 173,-59 173,-161 0,-51 -63,-106 -122,-106 -17,0 -43,13 -43,26 0,0 0,8 0,12 0,17 -8,26 -25,26 -38,0 -51,-30 -51,-72 0,-47 38,-77 85,-77 46,0 80,60 241,60 127,0 195,-38 267,-68 -98,114 -144,279 -144,423 0,93 30,115 30,153 0,17 -47,38 -85,38 -38,0 -55,-26 -55,-38 0,-9 8,-17 17,-17 25,-4 46,-34 46,-59 0,-68 -50,-127 -118,-127 -55,0 -127,59 -127,122 0,9 0,26 4,38 -25,43 -42,85 -42,119 0,55 59,152 161,152 8,0 21,-12 33,-12 43,0 85,59 136,59 85,0 157,-64 182,-136 55,47 89,89 148,102 114,30 224,34 224,161 0,63 -38,123 -101,123 -38,0 -59,-13 -59,-43 0,-4 4,-8 8,-8 9,0 21,17 30,17 34,0 46,-30 46,-68 0,-76 -67,-135 -118,-135 -68,0 -110,55 -110,118 0,9 0,17 0,30 -38,17 -60,67 -60,110 0,72 68,152 123,152 9,0 26,-8 38,-12 -8,25 -25,55 -25,88 0,119 114,225 216,225 89,0 195,-85 195,-174 0,-76 -39,-135 -102,-135 -21,0 -30,12 -38,38 -9,17 -13,42 -30,42 -21,0 -29,-25 -29,-46 0,-34 21,-43 59,-68 76,-51 140,-123 140,-229 0,-106 -34,-152 -81,-216 47,-25 97,-55 123,-93 25,-34 46,-46 63,-46 26,0 38,34 38,55 0,25 -21,59 -55,59 -17,0 -33,-25 -50,-25 -30,0 -51,59 -51,93 0,67 89,106 144,106 42,0 72,-22 123,-51 -60,139 -98,292 -98,440 0,25 0,47 4,72 -93,13 -156,63 -156,152 4,64 17,98 42,98 30,0 59,-51 85,-51 42,0 139,364 207,470 186,283 491,436 838,546 v 13 c 0,72 85,122 140,122 25,0 38,-8 38,-25 0,-25 -13,-59 -13,-72 0,-21 22,-38 43,-38 29,0 59,42 59,72 0,157 131,229 258,229 26,0 55,-5 68,-9 47,25 97,51 144,51 317,0 203,-377 356,-377 21,0 29,17 29,38 0,38 -68,38 -68,81 0,38 34,89 77,89 29,0 59,-17 80,-43 47,4 97,4 148,4 102,0 208,-8 288,-46 4,0 81,275 98,339 0,67 38,114 101,114 47,0 178,-21 373,-51 508,-76 1418,-216 2239,-216 h 123 z m -2942,-1465 -55,119 c -17,0 -34,-4 -51,-4 -305,0 -487,355 -699,355 -144,0 -300,-173 -309,-309 -12,4 -17,4 -25,4 -123,0 -254,-135 -254,-262 0,-148 241,-279 372,-347 381,-199 881,-330 1296,-339 25,0 51,0 76,4 z M 1398,1941 c 0,157 98,288 254,288 136,0 204,-51 204,-144 0,-51 -39,-93 -64,-93 -34,0 -63,50 -97,50 -55,0 -106,-63 -106,-118 0,-97 127,-169 207,-169 140,0 275,127 275,258 0,21 0,34 -16,51 -17,4 -34,12 -39,25 9,4 13,4 22,4 8,0 12,-4 17,-8 0,-4 4,-9 12,-9 115,0 178,127 178,225 0,106 -89,211 -195,211 -38,0 -114,-38 -114,-97 0,-13 13,-51 30,-55 12,13 29,25 59,25 42,0 68,-33 68,-84 0,-43 -22,-76 -64,-76 -38,0 -51,33 -68,55 -38,42 -105,84 -152,105 38,17 97,153 97,208 0,127 -50,165 -131,220 -42,25 -68,51 -68,93 0,17 26,68 51,68 38,0 47,-55 55,-81 h 9 c 55,0 84,55 84,106 0,81 -89,148 -165,148 -97,0 -194,-105 -194,-199 0,-29 21,-80 21,-110 0,-8 -5,-8 -13,-8 -13,0 -34,17 -51,17 -42,0 -101,-76 -101,-127 0,-47 29,-89 63,-102 0,-8 -4,-17 -4,-25 0,-72 29,-106 89,-106 59,0 97,59 97,119 0,25 -8,38 -21,38 -9,0 -21,-17 -38,-17 -13,0 -30,4 -30,29 0,47 38,68 81,68 72,0 127,-80 127,-140 0,-165 -110,-165 -229,-190 -59,-17 -106,-55 -157,-106 5,-4 5,-8 5,-13 l -9,-17 c -38,77 -93,170 -178,170 -46,0 -101,-60 -139,-60 -13,0 -26,9 -38,9 -77,0 -132,-72 -132,-131 0,-34 9,-68 30,-102 0,-4 -4,-21 -4,-25 0,-55 42,-123 110,-123 51,0 97,51 97,89 0,17 -8,51 -29,51 -22,0 -30,17 -30,33 0,26 25,60 76,60 47,0 106,-21 106,-55 0,-34 -34,-85 -34,-153 0,-317 241,-618 584,-618 43,0 89,9 136,21 25,60 118,140 190,140 55,0 93,-17 110,-30 246,123 322,428 322,661 0,34 -34,237 -59,271 -115,148 -161,326 -161,504 0,46 4,97 8,144 -4,-9 -8,-9 -12,-9 -21,0 -47,13 -68,30 -4,-26 -21,-68 -80,-106 l -5,-127 c 0,-296 199,-474 199,-749 0,-352 -275,-568 -580,-568 -178,0 -398,182 -398,356 z m 2557,1647 c -169,0 -351,-149 -406,-309 -153,-72 -330,-229 -330,-424 0,-118 211,-317 410,-427 339,-187 872,-364 1338,-364 h 186 l -42,101 c -8,0 -42,4 -97,4 -487,0 -885,136 -1300,335 -51,25 -398,212 -398,368 0,174 152,301 267,301 8,0 17,0 21,0 38,161 161,309 343,309 224,0 398,-356 677,-356 17,0 34,0 51,4 l -59,144 c -17,-4 -30,-4 -43,-4 -46,0 -89,42 -152,42 -42,0 -93,-38 -102,-38 -25,0 -63,64 -63,119 0,8 0,17 4,25 -63,26 -169,170 -305,170 z M 704,1204 c 0,-122 76,-233 203,-233 64,0 161,47 161,119 0,68 -34,114 -93,114 -34,0 -51,-17 -51,-51 21,-4 34,-12 34,-33 0,-22 -21,-34 -46,-34 -68,0 -81,72 -81,135 0,140 136,237 258,237 229,0 504,-228 724,-228 9,0 13,0 21,0 13,21 60,42 85,42 -4,17 -8,30 -8,47 0,25 8,46 12,72 -29,-5 -101,-13 -131,-13 -161,0 -322,85 -398,156 -21,22 -51,34 -89,47 -76,30 -156,55 -237,55 -152,0 -161,-63 -237,-63 -59,0 -118,50 -118,105 0,55 25,102 88,102 26,0 39,-17 39,-34 v -13 c 0,-12 8,-21 25,-21 42,0 93,55 93,98 0,67 -76,127 -148,127 -17,0 -34,-9 -51,-22 -4,0 -17,5 -46,5 -85,0 -178,-76 -178,-182 0,-38 21,-85 38,-123 -4,-17 -4,-34 -4,-51 8,-89 114,-140 160,-140 9,0 47,0 56,5 4,8 12,12 16,21 13,25 43,38 85,42 -8,-17 -42,-42 -97,-85 -30,-16 -51,-42 -64,-80 -12,-34 -21,-76 -21,-123 z m 3730,2511 c 0,-68 67,-115 127,-115 59,5 105,34 144,98 21,34 42,161 42,224 0,136 -144,220 -246,220 -67,0 -101,-8 -127,-12 -21,-72 -72,-132 -144,-132 -12,0 -38,9 -42,9 -25,0 -51,-43 -127,-43 -63,0 -157,60 -165,110 0,30 4,47 -8,56 -26,29 -39,55 -39,76 0,34 39,72 39,93 0,76 -166,190 -259,190 -93,0 -237,-89 -237,-190 0,-81 -51,-119 -89,-119 -25,0 -55,30 -55,64 0,17 13,42 13,55 0,21 -17,25 -34,25 -42,0 -106,-59 -106,-106 0,-67 81,-156 165,-156 60,0 94,38 123,72 v -9 c 0,-63 59,-131 119,-131 59,0 156,80 156,148 0,47 -29,110 -72,110 -8,0 -25,0 -25,-12 0,-17 8,-26 8,-39 0,-25 -12,-38 -29,-38 -30,0 -72,38 -72,81 0,59 59,97 110,97 76,0 148,-55 148,-127 0,-34 0,-42 0,-51 0,-110 72,-262 191,-275 l 203,-42 c 25,55 68,89 135,89 17,4 26,8 26,17 0,42 89,80 139,80 127,0 250,-106 250,-233 0,-55 -55,-118 -114,-118 -59,0 -47,80 -102,80 -25,0 -46,-21 -46,-46 z M 2486,3368 c 0,-5 0,-13 0,-17 0,-64 -34,-98 -63,-127 -26,-26 -47,-55 -55,-110 0,-34 -4,-94 -4,-119 0,-347 190,-724 580,-724 67,13 165,76 165,186 17,9 21,5 33,13 47,30 81,68 81,127 0,47 -25,106 -72,123 4,8 4,17 4,29 0,77 -114,149 -182,149 -85,0 -165,-72 -165,-153 0,-38 25,-101 59,-101 17,0 34,21 38,33 0,5 13,9 39,9 42,0 84,-55 84,-93 0,-93 -101,-144 -169,-144 -127,0 -263,89 -263,241 0,26 0,43 5,55 -38,68 -72,203 -72,297 0,101 34,224 97,313 -25,-9 -51,-9 -63,-9 -22,0 -56,13 -77,22 z m -512,-153 c -8,-21 -21,-42 -21,-63 0,-85 59,-132 131,-132 59,0 157,68 157,136 -26,21 -43,68 -43,80 0,34 5,72 26,72 -4,-12 -9,-42 -9,-59 0,-34 55,-114 110,-119 13,0 17,5 22,17 4,30 29,60 55,89 34,34 67,76 67,119 0,8 0,13 0,21 -55,42 -114,102 -114,178 0,12 4,21 9,29 4,0 4,-8 8,-29 4,-81 102,-186 195,-186 101,0 173,84 173,169 0,68 -38,118 -89,118 -17,0 -42,-25 -42,-33 0,-13 9,-22 9,-30 0,-34 -39,-47 -68,-47 -47,0 -89,47 -89,89 0,93 110,178 173,220 157,93 288,153 475,204 46,12 63,16 67,16 -34,34 -63,56 -72,111 -410,-140 -643,-276 -812,-547 -68,-114 -161,-474 -237,-474 -43,0 -51,51 -81,51 z m 2786,110 c 0,0 131,-305 465,-1037 47,254 98,512 148,766 5,26 13,64 13,81 0,50 -25,67 -59,72 -186,34 -381,67 -563,110 z M 1923,1251 c -89,-4 -156,-131 -156,-208 0,-114 89,-220 199,-220 89,0 182,72 182,136 0,29 -22,84 -72,84 -30,0 -30,-67 -72,-67 -34,0 -76,34 -76,67 0,68 84,98 139,98 76,0 144,-64 229,-64 156,0 267,140 292,297 -106,55 -169,169 -178,266 -17,-21 -30,-34 -51,-50 43,-43 68,-115 68,-170 0,-80 -76,-195 -174,-195 -76,5 -114,39 -114,89 0,34 9,81 34,81 17,0 30,-13 42,-13 34,0 43,21 43,59 0,51 -72,98 -127,98 -102,0 -195,-98 -195,-225 0,-50 13,-84 51,-105 17,-9 29,-17 29,-22 0,-4 -8,-4 -12,-4 -34,0 -64,34 -81,68 z m 618,1168 c 30,-84 47,-173 47,-262 0,-157 -38,-313 -140,-457 -8,-17 -12,-34 -12,-47 4,-110 80,-216 173,-258 42,-17 89,-26 136,-26 160,0 279,144 279,284 0,123 -93,203 -216,203 -38,0 -76,-51 -76,-89 0,-17 4,-34 21,-34 4,0 17,9 25,9 22,0 39,-42 39,-72 0,-51 -72,-110 -123,-110 -47,0 -81,55 -81,89 0,38 26,80 34,101 43,106 89,259 89,390 0,38 -13,131 -34,156 -97,51 -118,81 -161,123 z M 797,772 c 0,-110 59,-156 174,-156 131,0 195,106 195,203 0,42 -39,140 -72,169 42,0 76,-42 122,-42 115,0 191,97 191,212 0,63 -43,178 -131,178 -55,0 -102,-9 -102,-64 0,-21 8,-38 25,-47 34,-12 64,-21 64,-59 0,-42 -42,-72 -72,-72 -59,0 -102,93 -102,131 0,22 9,39 9,60 0,51 -38,89 -93,89 -34,0 -51,-17 -51,-43 0,-12 8,-25 21,-34 l -21,-12 c -4,12 -42,12 -47,12 -12,0 -25,-4 -29,-8 -17,-13 -22,-38 -22,-68 0,-59 5,-114 60,-114 8,0 21,4 21,8 0,13 -21,22 -30,22 -4,8 -4,16 -4,25 0,38 34,63 80,63 68,0 106,-55 106,-131 0,-106 -101,-148 -190,-148 -127,0 -208,119 -208,207 v 5 c -17,0 -21,-5 -21,-13 0,-13 -25,-25 -80,-34 17,-135 131,-237 258,-237 30,0 47,9 72,9 34,0 76,-26 76,-64 0,-25 -34,-72 -63,-72 -26,0 -89,85 -93,85 -30,0 -43,-21 -43,-60 z M 277,298 c 33,0 80,34 80,77 0,16 -38,59 -38,84 0,9 0,13 4,17 25,-63 72,-123 144,-123 72,0 140,47 140,119 0,25 -17,42 -47,51 -29,-21 -29,-60 -72,-60 -34,0 -55,26 -55,64 0,63 81,63 136,63 114,0 211,111 211,225 0,17 0,29 -4,46 -63,22 -85,34 -114,60 0,-5 0,-22 0,-34 0,-89 -93,-140 -161,-140 -51,0 -97,30 -97,89 0,34 21,59 50,59 9,0 38,-17 55,-17 17,0 34,26 34,51 0,47 -59,110 -131,110 -110,0 -89,-110 -131,-173 -30,-43 -68,-34 -68,-106 0,-51 47,-85 93,-85 21,0 76,30 85,30 -9,-43 -64,-55 -72,-55 -13,0 -17,8 -30,8 -42,0 -89,-106 -89,-148 0,-25 13,-59 26,-80 l -34,25 c -4,0 -4,0 -9,0 -21,0 -33,-59 -33,-106 0,-34 4,-63 16,-63 13,0 26,21 51,21 17,0 43,-9 60,-9 z m 2438,3357 c 21,-17 46,-76 46,-110 0,-8 0,-21 -4,-29 153,148 504,233 750,233 220,0 482,-34 664,-102 -21,55 -38,55 -38,131 0,9 4,34 9,42 -182,51 -407,81 -580,81 -178,0 -707,-106 -847,-246 z m -34,13 c 212,178 699,258 876,258 47,0 85,0 127,-4 l 165,-21 c -63,46 -114,169 -114,250 0,12 4,34 4,50 0,68 -59,123 -135,123 -42,0 -93,-38 -93,-80 0,-26 34,-59 51,-59 8,0 17,4 17,16 0,13 -13,26 -13,39 0,25 21,33 46,33 47,0 89,-76 89,-122 0,-85 -93,-178 -173,-178 -81,0 -123,51 -136,114 -25,-25 -67,-46 -106,-46 -25,0 -67,8 -80,12 -51,-4 -436,-156 -563,-228 -72,-38 -157,-123 -157,-182 0,-34 21,-72 60,-72 17,0 50,8 50,25 0,4 -8,13 -8,17 0,30 34,59 63,59 9,0 17,0 30,-4 z m 1698,521 c 0,-17 0,-21 0,-43 29,9 59,13 127,13 156,0 258,-97 258,-258 0,-64 8,-140 72,-140 55,0 89,64 89,119 v 17 c 0,17 -5,34 -9,50 -8,30 -8,47 -8,51 21,-25 38,-80 38,-114 0,-59 -47,-127 -93,-140 0,-25 12,-55 34,-93 25,-34 76,-76 122,-76 51,0 89,25 110,68 -93,38 -122,93 -131,211 -29,347 -220,466 -529,466 -38,0 -80,0 -123,-4 21,-34 43,-76 43,-127 z m -136,-504 c -4,-21 -17,-38 -34,-51 -8,-4 -12,-17 -12,-34 0,-50 42,-118 93,-131 21,42 76,68 114,68 30,0 64,-13 85,-21 12,29 46,46 63,63 h -8 c -76,0 -132,64 -132,131 0,43 26,77 68,77 47,0 55,-81 106,-81 55,0 89,51 89,93 0,110 -119,216 -233,216 -34,0 -123,-55 -127,-106 l -34,9 c -80,0 -127,-51 -127,-140 0,-29 17,-97 43,-118 17,17 33,25 46,25 z m -326,423 c 0,-67 81,-122 148,-122 68,0 106,42 119,42 13,0 25,-13 42,-13 85,0 131,89 131,170 0,46 -46,182 -118,182 -25,0 -68,-43 -68,-68 0,-38 72,-30 72,-81 0,-33 -17,-63 -51,-63 -156,0 -80,368 -343,368 -63,0 -84,-12 -118,-34 55,-21 173,-110 173,-190 0,-30 -38,-59 -38,-93 0,-26 38,-68 60,-68 4,0 8,4 17,13 17,17 29,25 42,29 0,-21 -21,-42 -68,-63 z M 3062,2123 c -13,17 -30,25 -47,25 -50,0 -84,-72 -84,-114 0,-93 135,-174 224,-174 106,0 199,102 216,182 47,5 81,68 81,106 0,68 -64,123 -140,123 -26,89 -72,152 -178,152 -4,-67 -51,-135 -119,-152 64,-4 212,-46 212,-131 0,-64 -46,-119 -97,-119 -43,0 -81,21 -81,47 0,21 9,46 13,55 z m -415,978 c 0,-38 47,-102 68,-102 4,0 8,0 13,-4 12,-55 50,-97 110,-97 17,0 34,4 46,8 34,13 55,42 55,81 0,29 -8,46 -21,46 -13,0 -30,-8 -46,-8 -22,0 -34,25 -34,46 0,38 50,85 101,85 76,0 132,-68 132,-140 0,-42 -26,-72 -47,-106 21,-4 68,-29 85,-46 50,29 84,127 84,190 0,140 -106,271 -245,271 -47,0 -136,-68 -148,-80 -39,-4 -64,-9 -77,-17 -29,-17 -76,-85 -76,-127 z M 2080,2059 c 13,-29 13,-42 13,-72 0,-135 -178,-258 -284,-258 -110,0 -246,76 -246,203 0,64 64,136 136,136 34,0 55,-47 93,-47 21,0 38,43 38,64 0,63 -59,110 -123,110 -131,0 -224,-72 -224,-199 0,-165 127,-318 318,-318 245,0 486,233 486,470 0,38 -8,106 -21,136 0,-93 -68,-225 -173,-225 -5,0 -9,0 -13,0 z m 2612,1245 c -30,-8 -47,-13 -51,-13 -4,0 -4,0 -4,-4 0,-8 8,-25 8,-30 l 534,-1172 c 21,38 38,118 38,165 -191,419 -491,1096 -495,1096 0,0 4,-8 12,-29 z m -411,80 c 0,-33 13,-63 38,-88 34,29 89,38 132,38 55,0 105,-22 165,-22 135,0 296,119 360,246 -56,21 -68,38 -85,47 -38,-89 -114,-136 -161,-136 -30,0 -93,26 -93,64 0,4 4,4 4,4 9,0 9,4 9,8 0,5 0,13 -9,13 -13,8 -25,13 -42,13 -47,0 -106,-55 -106,-93 0,-43 34,-89 97,-98 30,-4 47,-8 51,-17 -17,-4 -30,-8 -42,-8 -81,0 -119,63 -119,135 -25,21 -51,30 -72,30 -72,0 -127,-76 -127,-136 z M 1597,2195 c -106,-21 -169,-131 -169,-237 0,-170 199,-347 360,-347 334,0 563,283 563,537 0,309 -199,402 -199,754 0,38 0,76 4,110 -8,-4 -34,-13 -46,-17 0,-25 -5,-47 -5,-72 0,-161 60,-339 110,-453 30,-47 60,-89 60,-148 17,-55 38,-127 38,-178 0,-237 -220,-487 -512,-487 -187,0 -339,144 -339,326 0,93 51,170 140,212 z m 1249,681 c -46,0 -80,13 -89,22 -84,-22 -131,-132 -131,-208 0,-114 119,-211 220,-211 68,0 157,33 157,110 0,29 -26,76 -51,76 -25,0 -51,-43 -85,-43 -55,0 -89,77 -89,123 0,55 43,110 77,131 z M 488,1204 c 26,-46 55,-72 93,-72 38,0 89,30 98,72 0,9 0,17 0,21 0,30 -13,64 -43,64 -17,0 -38,-13 -50,-13 -26,0 -43,38 -43,68 0,42 64,80 93,89 -34,21 -84,59 -89,114 -55,-8 -88,-46 -105,-123 -51,-17 -89,-76 -89,-122 0,-38 59,-106 106,-106 12,0 21,4 29,8 z m 1672,115 c 0,-51 30,-68 93,-68 85,0 149,97 149,169 0,76 -22,123 -64,153 -29,-30 -59,-47 -93,-55 17,-13 38,-60 38,-81 0,-55 -25,-80 -46,-80 -26,0 -39,17 -51,17 -17,0 -26,-26 -26,-55 z m 2697,2349 c -21,38 -30,64 -30,72 -42,13 -55,38 -72,64 -12,-161 -127,-221 -139,-221 -9,0 55,-4 55,-42 0,-4 -5,-13 -9,-21 17,-21 38,-30 64,-30 55,0 93,38 139,106 5,4 5,9 5,21 0,13 -5,30 -13,51 z M 2867,3042 c 17,8 30,12 43,12 34,0 55,-38 55,-67 0,-22 -21,-68 -26,-77 26,5 34,9 43,9 4,0 12,-4 17,-4 33,33 50,76 50,110 0,55 -46,110 -97,110 -42,0 -93,-26 -93,-60 0,-8 4,-21 8,-33 z M 759,1412 c -13,-5 -25,-5 -34,-5 -25,0 -51,13 -55,13 -29,0 -106,-42 -106,-76 0,-17 13,-42 30,-42 13,0 25,17 42,17 22,0 30,-9 51,-39 13,43 38,115 72,132 z m 89,-563 c 30,-9 64,-77 85,-77 12,0 42,26 42,43 0,17 -21,51 -59,51 -13,0 -26,-9 -47,-9 -4,0 -17,0 -21,0 z" class="fil0"/>
   <path style="fill:#000000;fill-rule:nonzero" inkscape:connector-curvature="0" id="path9" d="m 7681,4337 h 3306 v -38 h -4 -3302 z m 3306,110 H 7681 v 38 h 3306 z M 7681,3088 h 3306 v -34 H 7681 Z m 0,140 h 3306 v -34 H 7681 Z" class="fil0"/>
   <path style="fill:#000000;fill-rule:nonzero" inkscape:connector-curvature="0" id="path11" d="m 10987,4447 h 152 c 855,0 1740,140 2223,216 182,30 309,51 355,51 55,0 77,-34 77,-89 l -127,-30 c -894,-207 -1660,-258 -2570,-258 h -110 v -38 h 4 123 c 817,0 1549,29 2557,258 l 131,30 89,-297 c -110,-38 -203,-232 -216,-313 -13,-89 -21,-288 -140,-313 -8,-4 -12,-4 -12,-13 0,-68 76,-101 139,-101 h 9 c 25,-34 38,-68 72,-102 -13,-4 -30,-9 -64,-17 -859,-152 -1706,-203 -2582,-203 h -110 v -34 h 144 c 1155,0 1689,63 2624,224 9,0 13,-4 17,-4 5,-4 68,-59 102,-76 -834,-182 -1736,-250 -2760,-250 h -127 v -34 h 178 c 982,0 1447,38 2099,136 -8,-21 -8,-30 -8,-47 0,-21 13,-97 13,-97 l 144,-741 c 4,-21 8,-38 12,-59 0,-72 21,-170 72,-225 h 119 c 669,0 1206,229 1452,377 152,93 415,258 415,453 0,186 -174,377 -339,453 -64,165 -254,318 -440,318 -140,0 -191,-106 -297,-183 l -8,13 c 59,34 93,85 93,140 0,8 0,17 0,30 241,71 364,97 669,97 267,0 554,-72 758,-241 17,-51 55,-94 84,-106 72,-93 115,-220 115,-339 0,-76 -30,-207 -60,-258 -21,55 -67,118 -127,140 22,16 38,50 38,67 56,17 85,68 85,123 0,80 -72,161 -118,161 -17,0 -43,0 -60,8 -50,43 -110,77 -156,77 -144,0 -267,-140 -267,-293 0,-71 38,-156 93,-211 -29,-38 -46,-51 -46,-89 0,-9 0,-17 4,-25 -51,-26 -85,-81 -85,-136 0,-72 51,-114 102,-157 h -9 c -89,0 -139,-55 -165,-148 -80,0 -152,-51 -152,-139 0,-64 42,-115 89,-132 12,-59 76,-186 241,-186 110,0 241,97 241,207 0,64 -46,127 -114,127 -25,0 -68,-16 -68,-46 0,-17 13,-30 13,-47 0,-25 -34,-29 -51,-29 -38,0 -80,55 -80,89 0,84 173,114 262,114 55,0 140,8 199,30 -13,-51 -21,-119 -21,-136 0,-152 47,-279 102,-415 12,-29 25,-59 25,-72 0,-38 -25,-76 -55,-76 -47,0 -102,51 -102,85 0,25 9,55 30,55 8,0 17,-4 30,-4 25,0 33,21 33,46 0,64 -50,119 -110,119 -156,0 -237,-119 -237,-242 0,-114 98,-300 288,-300 51,0 98,8 153,29 21,-165 122,-317 326,-317 101,0 135,59 211,59 38,0 119,-25 119,-59 0,-34 -30,-55 -43,-55 -42,0 -33,72 -84,72 -43,0 -93,-68 -93,-110 0,-106 97,-161 216,-161 118,0 220,114 220,245 0,55 -26,115 -64,161 313,21 445,229 707,229 98,0 186,-64 216,-114 4,-5 4,-9 4,-13 -25,13 -46,13 -59,13 4,8 4,8 4,21 0,34 -42,51 -76,51 -51,0 -106,-47 -106,-98 0,-17 4,-34 4,-55 0,-46 -42,-123 -84,-123 -26,0 -55,26 -55,43 0,25 29,42 51,46 21,5 42,43 42,64 0,59 -47,93 -119,93 -97,0 -156,-119 -156,-203 0,-115 89,-233 203,-233 25,0 46,4 68,13 -17,-39 -34,-81 -34,-123 0,-123 97,-225 220,-225 97,0 173,39 182,132 55,-140 131,-148 229,-148 55,0 101,-9 101,-43 0,-25 -17,-46 -34,-46 -21,0 -38,59 -67,59 -39,0 -72,-38 -72,-76 0,-93 97,-136 160,-136 34,0 60,9 94,30 12,-51 42,-81 101,-81 17,0 43,5 64,5 18,0 19,-14 28,-22 h 29 c 20,12 32,47 32,85 0,55 -13,123 -47,123 -4,0 -8,0 -17,-4 4,12 9,29 9,42 0,55 -30,119 -77,152 34,17 68,55 68,98 0,84 -42,63 -76,118 -30,89 -30,187 -157,187 -59,0 -144,-51 -144,-140 0,-34 38,-72 64,-72 13,0 25,21 46,21 22,0 30,-30 30,-42 0,-43 -30,-64 -68,-64 -59,0 -148,55 -148,148 0,9 0,17 4,26 34,55 51,80 72,169 38,9 68,34 85,72 8,-4 13,-8 21,-8 64,0 131,63 131,131 0,51 -46,123 -84,131 -17,64 -43,123 -136,136 4,8 4,12 4,21 0,8 0,12 -4,21 17,42 38,85 38,127 0,102 -105,199 -203,199 -8,0 -25,-4 -34,-4 -17,12 -38,21 -63,21 -85,0 -174,-59 -174,-161 0,-51 64,-106 123,-106 17,0 42,13 42,26 0,0 0,8 0,12 0,17 9,26 26,26 38,0 51,-30 51,-72 0,-47 -43,-77 -85,-77 -47,0 -81,60 -246,60 -122,0 -190,-38 -262,-68 93,114 144,279 144,423 0,93 -30,115 -30,153 0,17 47,38 85,38 34,0 55,-26 55,-38 0,-9 -9,-17 -17,-17 -30,-4 -47,-34 -47,-59 0,-68 51,-127 115,-127 55,0 131,59 131,122 0,9 0,26 -4,38 25,43 42,85 42,119 0,55 -59,152 -161,152 -8,0 -25,-12 -34,-12 -46,0 -84,59 -135,59 -85,0 -157,-64 -182,-136 -55,47 -89,89 -148,102 -115,30 -225,34 -225,161 0,63 34,123 102,123 38,0 59,-13 59,-43 0,-4 -4,-8 -8,-8 -13,0 -22,17 -30,17 -34,0 -47,-30 -47,-68 0,-76 68,-135 115,-135 72,0 114,55 114,118 0,9 0,17 -4,30 42,17 63,67 63,110 0,72 -67,152 -122,152 -9,0 -26,-8 -39,-12 9,25 26,55 26,88 0,119 -114,225 -216,225 -89,0 -195,-85 -195,-174 0,-76 38,-135 102,-135 21,0 29,12 38,38 8,17 13,42 30,42 21,0 29,-25 29,-46 0,-34 -21,-43 -59,-68 -76,-51 -140,-123 -140,-229 0,-106 34,-152 81,-216 -47,-25 -98,-55 -123,-93 -26,-34 -47,-46 -64,-46 -25,0 -38,34 -38,55 0,25 21,59 55,59 17,0 34,-25 51,-25 30,0 51,59 51,93 0,67 -93,106 -148,106 -43,0 -68,-22 -119,-51 59,139 98,292 98,440 0,25 -5,47 -5,72 93,13 157,63 157,152 -4,64 -21,98 -47,98 -25,0 -55,-51 -80,-51 -42,0 -140,364 -212,470 -182,283 -487,436 -834,546 v 13 c 0,72 -89,122 -144,122 -21,0 -33,-8 -33,-25 0,-25 12,-59 12,-72 0,-21 -25,-38 -42,-38 -30,0 -64,42 -64,72 0,157 -127,229 -254,229 -25,0 -55,-5 -67,-9 -47,25 -98,51 -144,51 -318,0 -203,-377 -356,-377 -21,0 -30,17 -30,38 0,38 68,38 68,81 0,38 -34,89 -76,89 -30,0 -59,-17 -80,-43 -47,4 -98,4 -149,4 -101,0 -207,-8 -287,-46 -9,0 -81,275 -98,339 0,67 -42,114 -101,114 -47,0 -178,-21 -373,-51 -508,-76 -1418,-216 -2239,-216 h -123 z m 2942,-1465 55,119 c 17,0 34,-4 51,-4 305,0 487,355 698,355 144,0 301,-173 309,-309 13,4 17,4 26,4 123,0 254,-135 254,-262 0,-148 -242,-279 -373,-347 -381,-199 -880,-330 -1295,-339 -30,0 -55,0 -76,4 z m 3340,-1041 c 0,157 -97,288 -250,288 -139,0 -203,-51 -203,-144 0,-51 38,-93 64,-93 34,0 63,50 97,50 55,0 106,-63 106,-118 0,-97 -127,-169 -208,-169 -139,0 -275,127 -275,258 0,21 0,34 17,51 17,4 34,12 38,25 -8,4 -17,4 -21,4 -8,0 -17,-4 -17,-8 0,-4 -4,-9 -13,-9 -114,0 -177,127 -177,225 0,106 89,211 194,211 39,0 115,-38 115,-97 0,-13 -13,-51 -30,-55 -13,13 -30,25 -59,25 -43,0 -68,-33 -68,-84 0,-43 21,-76 59,-76 43,0 51,33 72,55 38,42 106,84 153,105 -43,17 -98,153 -98,208 0,127 51,165 132,220 38,25 67,51 67,93 0,17 -25,68 -50,68 -39,0 -47,-55 -60,-81 h -4 c -55,0 -85,55 -85,106 0,81 89,148 165,148 98,0 195,-105 195,-199 0,-29 -21,-80 -21,-110 0,-8 4,-8 13,-8 12,0 34,17 51,17 42,0 101,-76 101,-127 0,-47 -30,-89 -68,-102 5,-8 9,-17 9,-25 0,-72 -34,-106 -89,-106 -59,0 -97,59 -97,119 0,25 8,38 21,38 8,0 21,-17 38,-17 13,0 29,4 29,29 0,47 -42,68 -80,68 -72,0 -131,-80 -131,-140 0,-165 114,-165 233,-190 59,-17 105,-55 156,-106 -4,-4 -4,-8 -4,-13 l 9,-17 c 33,77 93,170 177,170 47,0 98,-60 140,-60 13,0 25,9 38,9 76,0 131,-72 131,-131 0,-34 -8,-68 -29,-102 0,-4 0,-21 0,-25 0,-55 -38,-123 -106,-123 -51,0 -97,51 -97,89 0,17 8,51 29,51 21,0 30,17 30,33 0,26 -26,60 -76,60 -51,0 -106,-21 -106,-55 0,-34 34,-85 34,-153 0,-317 -242,-618 -585,-618 -42,0 -88,9 -135,21 -25,60 -119,140 -191,140 -55,0 -93,-17 -110,-30 -249,123 -321,428 -321,661 0,34 34,237 59,271 114,148 161,326 161,504 0,46 -9,97 -13,144 4,-9 13,-9 17,-9 21,0 47,13 68,30 4,-26 17,-68 80,-106 l 4,-127 c 0,-296 -203,-474 -203,-749 0,-352 280,-568 584,-568 178,0 394,182 394,356 z m -2553,1647 c 170,0 352,-149 407,-309 152,-72 326,-229 326,-424 0,-118 -208,-317 -407,-427 -338,-187 -872,-364 -1337,-364 h -191 l 47,101 c 8,0 42,4 97,4 487,0 885,136 1300,335 51,25 398,212 398,368 0,174 -153,301 -271,301 -5,0 -13,0 -17,0 -43,161 -161,309 -343,309 -224,0 -398,-356 -677,-356 -17,0 -34,0 -55,4 l 63,144 c 13,-4 30,-4 42,-4 47,0 89,42 153,42 42,0 93,-38 101,-38 26,0 64,64 64,119 0,8 0,17 -4,25 59,26 169,170 304,170 z m 3252,-2384 c 0,-122 -77,-233 -204,-233 -67,0 -160,47 -160,119 0,68 33,114 93,114 29,0 50,-17 50,-51 -21,-4 -33,-12 -33,-33 0,-22 21,-34 46,-34 68,0 76,72 76,135 0,140 -131,237 -254,237 -232,0 -503,-228 -724,-228 -8,0 -12,0 -21,0 -12,21 -63,42 -84,42 4,17 8,30 8,47 0,25 -8,46 -13,72 30,-5 102,-13 132,-13 156,0 321,85 398,156 21,22 50,34 88,47 77,30 157,55 233,55 157,0 165,-63 242,-63 59,0 118,50 118,105 0,55 -25,102 -89,102 -25,0 -42,-17 -42,-34 l 4,-13 c 0,-12 -8,-21 -25,-21 -43,0 -93,55 -93,98 0,67 76,127 148,127 17,0 34,-9 46,-22 9,0 22,5 51,5 85,0 178,-76 178,-182 0,-38 -21,-85 -42,-123 8,-17 8,-34 8,-51 -8,-89 -114,-140 -161,-140 -8,0 -46,0 -55,5 -4,8 -13,12 -17,21 -17,25 -42,38 -84,42 8,-17 42,-42 97,-85 25,-16 51,-42 63,-80 13,-34 22,-76 22,-123 z m -3730,2511 c 0,-68 -68,-115 -127,-115 -59,5 -106,34 -144,98 -25,34 -42,161 -42,224 0,136 144,220 245,220 64,0 102,-8 127,-12 17,-72 72,-132 144,-132 13,0 38,9 43,9 25,0 50,-43 127,-43 63,0 156,60 165,110 0,30 -5,47 8,56 26,29 38,55 38,76 0,34 -38,72 -38,93 0,76 165,190 258,190 89,0 237,-89 237,-190 0,-81 51,-119 89,-119 26,0 51,30 51,64 0,17 -8,42 -8,55 0,21 17,25 34,25 38,0 105,-59 105,-106 0,-67 -80,-156 -165,-156 -59,0 -93,38 -122,72 v -9 c 0,-63 -60,-131 -119,-131 -59,0 -157,80 -157,148 0,47 30,110 72,110 9,0 26,0 26,-12 0,-17 -9,-26 -9,-39 0,-25 13,-38 30,-38 30,0 72,38 72,81 0,59 -59,97 -110,97 -76,0 -153,-55 -153,-127 0,-34 5,-42 5,-51 0,-110 -72,-262 -191,-275 l -207,-42 c -21,55 -64,89 -132,89 -16,4 -29,8 -29,17 0,42 -85,80 -136,80 -127,0 -249,-106 -249,-233 0,-55 55,-118 114,-118 59,0 42,80 101,80 22,0 47,-21 47,-46 z m 1947,-347 c 0,-5 0,-13 0,-17 0,-64 34,-98 64,-127 25,-26 46,-55 51,-110 4,-34 8,-94 8,-119 0,-347 -190,-724 -580,-724 -68,13 -165,76 -165,186 -17,9 -21,5 -38,13 -47,30 -76,68 -76,127 0,47 25,106 72,123 -4,8 -4,17 -4,29 0,77 114,149 177,149 89,0 170,-72 170,-153 0,-38 -26,-101 -64,-101 -13,0 -29,21 -34,33 0,5 -12,9 -38,9 -42,0 -89,-55 -89,-93 0,-93 106,-144 174,-144 127,0 262,89 262,241 0,26 0,43 -4,55 38,68 68,203 68,297 0,101 -30,224 -93,313 25,-9 50,-9 63,-9 21,0 55,13 76,22 z m 513,-153 c 8,-21 21,-42 21,-63 0,-85 -59,-132 -131,-132 -60,0 -157,68 -157,136 25,21 42,68 42,80 0,34 -4,72 -25,72 4,-12 4,-42 4,-59 0,-34 -55,-114 -106,-119 -12,0 -17,5 -21,17 -8,30 -30,60 -55,89 -34,34 -68,76 -68,119 0,8 0,13 0,21 55,42 115,102 115,178 0,12 -5,21 -9,29 -4,0 -8,-8 -8,-29 -5,-81 -102,-186 -195,-186 -102,0 -174,84 -174,169 0,68 38,118 89,118 13,0 38,-25 38,-33 0,-13 -4,-22 -4,-30 0,-34 38,-47 68,-47 42,0 89,47 89,89 0,93 -110,178 -174,220 -156,93 -288,153 -478,204 -42,12 -59,16 -64,16 34,34 64,56 72,111 411,-140 644,-276 813,-547 68,-114 157,-474 237,-474 43,0 47,51 81,51 z m -2786,110 c 0,0 -131,-305 -466,-1037 -46,254 -97,512 -148,766 -4,26 -12,64 -12,81 0,50 21,67 59,72 186,34 381,67 563,110 z m 2832,-2074 c 93,-4 161,-131 161,-208 0,-114 -89,-220 -199,-220 -89,0 -182,72 -182,136 0,29 21,84 68,84 34,0 34,-67 76,-67 34,0 76,34 76,67 0,68 -84,98 -140,98 -76,0 -143,-64 -228,-64 -157,0 -271,140 -292,297 106,55 165,169 178,266 17,-21 29,-34 50,-50 -42,-43 -72,-115 -72,-170 0,-80 81,-195 178,-195 76,5 115,39 115,89 0,34 -9,81 -34,81 -22,0 -30,-13 -43,-13 -34,0 -42,21 -42,59 0,51 72,98 123,98 106,0 199,-98 199,-225 0,-50 -17,-84 -51,-105 -21,-9 -30,-17 -30,-22 0,-4 9,-4 9,-4 38,0 67,34 80,68 z m -614,1168 c -29,-84 -46,-173 -46,-262 0,-157 34,-313 135,-457 13,-17 17,-34 17,-47 -4,-110 -80,-216 -173,-258 -43,-17 -89,-26 -140,-26 -157,0 -275,144 -275,284 0,123 93,203 216,203 38,0 76,-51 76,-89 0,-17 -4,-34 -21,-34 -5,0 -17,9 -26,9 -21,0 -38,-42 -38,-72 0,-51 72,-110 119,-110 51,0 84,55 84,89 0,38 -25,80 -33,101 -43,106 -94,259 -94,390 0,38 17,131 38,156 98,51 119,81 161,123 z M 17874,772 c 0,-110 -59,-156 -173,-156 -131,0 -195,106 -195,203 0,42 34,140 72,169 -42,0 -76,-42 -123,-42 -114,0 -190,97 -190,212 0,63 42,178 131,178 55,0 97,-9 97,-64 0,-21 -4,-38 -21,-47 -34,-12 -63,-21 -63,-59 0,-42 42,-72 72,-72 59,0 101,93 101,131 0,22 -8,39 -8,60 0,51 38,89 93,89 30,0 51,-17 51,-43 0,-12 -9,-25 -21,-34 l 21,-12 c 4,12 38,12 46,12 13,0 26,-4 30,-8 17,-13 21,-38 21,-68 0,-59 -4,-114 -59,-114 -9,0 -21,4 -21,8 0,13 21,22 29,22 5,8 5,16 5,25 0,38 -34,63 -81,63 -68,0 -106,-55 -106,-131 0,-106 102,-148 191,-148 127,0 207,119 207,207 v 5 c 17,0 21,-5 21,-13 0,-13 26,-25 81,-34 -17,-135 -131,-237 -258,-237 -30,0 -51,9 -72,9 -34,0 -81,-26 -81,-64 0,-25 38,-72 68,-72 25,0 89,85 93,85 30,0 42,-21 42,-60 z m 521,-474 c -34,0 -80,34 -80,77 0,16 38,59 38,84 0,9 0,13 -4,17 -26,-63 -72,-123 -144,-123 -72,0 -140,47 -140,119 0,25 17,42 47,51 29,-21 29,-60 72,-60 33,0 55,26 55,64 0,63 -81,63 -136,63 -114,0 -216,111 -216,225 0,17 4,29 9,46 63,22 84,34 114,60 0,-5 0,-22 0,-34 0,-89 93,-140 161,-140 51,0 97,30 97,89 0,34 -21,59 -51,59 -8,0 -38,-17 -55,-17 -17,0 -34,26 -34,51 0,47 60,110 127,110 115,0 94,-110 136,-173 30,-43 68,-34 68,-106 0,-51 -47,-85 -93,-85 -22,0 -77,30 -89,30 8,-43 67,-55 76,-55 13,0 17,8 29,8 43,0 85,-106 85,-148 0,-25 -8,-59 -21,-80 l 34,25 c 4,0 4,0 8,0 21,0 34,-59 34,-106 0,-34 -4,-63 -17,-63 -17,0 -25,21 -51,21 -21,0 -42,-9 -59,-9 z m -2438,3357 c -26,-17 -47,-76 -47,-110 0,-8 0,-21 4,-29 -152,148 -503,233 -749,233 -220,0 -482,-34 -664,-102 21,55 38,55 38,131 0,9 -5,34 -9,42 182,51 407,81 580,81 178,0 707,-106 847,-246 z m 34,13 c -212,178 -699,258 -881,258 -42,0 -85,0 -123,-4 l -165,-21 c 64,46 115,169 115,250 0,12 -5,34 -5,50 0,68 60,123 136,123 42,0 93,-38 93,-80 0,-26 -34,-59 -55,-59 -4,0 -13,4 -13,16 0,13 13,26 13,39 0,25 -21,33 -47,33 -46,0 -89,-76 -89,-122 0,-85 94,-178 174,-178 80,0 123,51 135,114 26,-25 68,-46 106,-46 26,0 68,8 81,12 51,-4 436,-156 563,-228 72,-38 156,-123 156,-182 0,-34 -21,-72 -59,-72 -17,0 -51,8 -51,25 0,4 5,13 5,17 0,30 -30,59 -60,59 -12,0 -21,0 -29,-4 z m -1702,521 c 0,-17 4,-21 4,-43 -30,9 -59,13 -127,13 -157,0 -258,-97 -258,-258 0,-64 -13,-140 -72,-140 -59,0 -89,64 -89,119 v 17 c 0,17 4,34 8,50 5,30 9,47 9,51 -21,-25 -38,-80 -38,-114 0,-59 46,-127 93,-140 0,-25 -13,-55 -38,-93 -21,-34 -72,-76 -119,-76 -50,0 -93,25 -110,68 93,38 123,93 131,211 30,347 221,466 525,466 43,0 85,0 127,-4 -25,-34 -46,-76 -46,-127 z m 140,-504 c 4,-21 16,-38 33,-51 9,-4 13,-17 13,-34 0,-50 -42,-118 -93,-131 -21,42 -76,68 -114,68 -30,0 -64,-13 -85,-21 -13,29 -47,46 -63,63 h 8 c 72,0 131,64 131,131 0,43 -25,77 -68,77 -46,0 -59,-81 -105,-81 -55,0 -89,51 -89,93 0,110 118,216 233,216 29,0 122,-55 127,-106 l 33,9 c 81,0 127,-51 127,-140 0,-29 -16,-97 -42,-118 -17,17 -34,25 -46,25 z m 326,423 c 0,-67 -81,-122 -149,-122 -67,0 -105,42 -118,42 -13,0 -26,-13 -43,-13 -84,0 -131,89 -131,170 0,46 47,182 119,182 25,0 68,-43 68,-68 0,-38 -72,-30 -72,-81 0,-33 12,-63 50,-63 157,0 77,368 339,368 68,0 89,-12 123,-34 -55,-21 -178,-110 -178,-190 0,-30 42,-59 42,-93 0,-26 -38,-68 -59,-68 -8,0 -13,4 -17,13 -17,17 -30,25 -42,29 0,-21 21,-42 68,-63 z m 850,-1985 c 17,17 34,25 51,25 51,0 85,-72 85,-114 0,-93 -136,-174 -224,-174 -106,0 -199,102 -221,182 -42,5 -80,68 -80,106 0,68 68,123 144,123 25,89 72,152 178,152 4,-67 50,-135 118,-152 -63,-4 -211,-46 -211,-131 0,-64 46,-119 97,-119 38,0 80,21 80,47 0,21 -8,46 -17,55 z m 420,978 c 0,-38 -51,-102 -72,-102 0,0 -5,0 -9,-4 -13,-55 -51,-97 -110,-97 -17,0 -34,4 -47,8 -33,13 -55,42 -55,81 0,29 9,46 22,46 12,0 29,-8 42,-8 25,0 38,25 38,46 0,38 -51,85 -102,85 -76,0 -131,-68 -131,-140 0,-42 26,-72 47,-106 -21,-4 -68,-29 -85,-46 -51,29 -85,127 -85,190 0,140 106,271 246,271 42,0 135,-68 148,-80 38,-4 64,-9 76,-17 30,-17 77,-85 77,-127 z m 567,-1042 c -13,-29 -13,-42 -13,-72 0,-135 174,-258 279,-258 115,0 250,76 250,203 0,64 -63,136 -135,136 -38,0 -55,-47 -93,-47 -26,0 -38,43 -38,64 0,63 59,110 122,110 127,0 225,-72 225,-199 0,-165 -127,-318 -318,-318 -245,0 -487,233 -487,470 0,38 9,106 22,136 0,-93 67,-225 173,-225 4,0 9,0 13,0 z m -2612,1245 c 29,-8 42,-13 51,-13 4,0 4,0 4,-4 0,-8 -9,-25 -13,-30 l -529,-1172 c -21,38 -38,118 -38,165 190,419 491,1096 491,1096 0,0 0,-8 -9,-29 z m 410,80 c 0,-33 -12,-63 -38,-88 -38,29 -89,38 -131,38 -55,0 -106,-22 -165,-22 -140,0 -301,119 -360,246 55,21 68,38 85,47 38,-89 114,-136 156,-136 34,0 98,26 98,64 0,4 -4,4 -4,4 -9,0 -13,4 -13,8 0,5 4,13 8,13 17,8 30,13 47,13 47,0 102,-55 102,-93 0,-43 -30,-89 -94,-98 -29,-4 -46,-8 -50,-17 12,-4 29,-8 42,-8 80,0 118,63 118,135 22,21 47,30 72,30 72,0 127,-76 127,-136 z m 2684,-1189 c 102,-21 170,-131 170,-237 0,-170 -203,-347 -364,-347 -331,0 -563,283 -563,537 0,309 203,402 203,754 0,38 0,76 -4,110 8,-4 33,-13 42,-17 4,-25 8,-47 8,-72 0,-161 -59,-339 -110,-453 -29,-47 -59,-89 -59,-148 -17,-55 -38,-127 -38,-178 0,-237 220,-487 512,-487 186,0 339,144 339,326 0,93 -51,170 -140,212 z m -1248,681 c 46,0 76,13 88,22 85,-22 132,-132 132,-208 0,-114 -119,-211 -220,-211 -68,0 -157,33 -157,110 0,29 25,76 51,76 25,0 51,-43 84,-43 55,0 89,77 89,123 0,55 -42,110 -76,131 z m 2358,-1672 c -26,-46 -56,-72 -94,-72 -42,0 -89,30 -97,72 0,9 0,17 0,21 0,30 13,64 42,64 13,0 34,-13 51,-13 26,0 42,38 42,68 0,42 -63,80 -93,89 34,21 85,59 89,114 55,-8 89,-46 106,-123 51,-17 89,-76 89,-122 0,-38 -59,-106 -106,-106 -13,0 -21,4 -29,8 z m -1677,115 c 0,-51 -30,-68 -89,-68 -84,0 -152,97 -152,169 0,76 25,123 68,153 29,-30 59,-47 93,-55 -17,-13 -38,-60 -38,-81 0,-55 25,-80 42,-80 30,0 42,17 55,17 17,0 21,-26 21,-55 z m -2692,2349 c 21,38 29,64 29,72 38,13 51,38 72,64 13,-161 127,-221 140,-221 8,0 -55,-4 -55,-42 0,-4 4,-13 8,-21 -16,-21 -38,-30 -63,-30 -55,0 -93,38 -140,106 -4,4 -4,9 -4,21 0,13 4,30 13,51 z m 1989,-626 c -17,8 -29,12 -42,12 -34,0 -55,-38 -55,-67 0,-22 21,-68 25,-77 -25,5 -33,9 -42,9 -8,0 -13,-4 -17,-4 -34,33 -51,76 -51,110 0,55 47,110 98,110 42,0 93,-26 93,-60 0,-8 -4,-21 -9,-33 z m 2109,-1630 c 12,-5 25,-5 33,-5 26,0 51,13 55,13 30,0 106,-42 106,-76 0,-17 -12,-42 -29,-42 -13,0 -30,17 -43,17 -21,0 -29,-9 -50,-39 -13,43 -39,115 -72,132 z m -89,-563 c -30,-9 -64,-77 -85,-77 -17,0 -42,26 -42,43 0,17 21,51 55,51 17,0 29,-9 46,-9 9,0 21,0 26,0 z" class="fil0"/>
  </g>
</svg>