<?xml version="1.0" encoding="utf-8"?>
<!-- Generator: Adobe Illustrator 27.1.1, SVG Export Plug-In . SVG Version: 6.00 Build 0)  -->
<svg version="1.1" id="Layer_1" xmlns="http://www.w3.org/2000/svg" xmlns:xlink="http://www.w3.org/1999/xlink" x="0px" y="0px"
	 viewBox="0 0 459.15 610.72" style="enable-background:new 0 0 459.15 610.72;" xml:space="preserve">
<g>
	<path d="M160.7,420.79c10.78-10.8,21.22-21.27,31.99-32.06c7.08,7.17,14.3,14.54,21.59,21.84c23.2,23.22,46.65,46.18,69.56,69.67
		c20.94,21.47,27.55,47.32,18.91,75.94c-8.64,28.63-28.54,46.33-57.79,52.82c-31.61,7-64.64-7.8-81.31-35.88
		c-16.64-28.03-13.73-64.03,7.65-88.44c5.99-6.84,13.17-12.63,19.62-18.73c10,10.07,20.4,20.53,31.67,31.87
		c-5.14,4.83-11,9.76-16.17,15.34c-8.29,8.95-10.27,19.73-6.42,31.14c3.73,11.05,11.69,18.06,23.21,20.44
		c13.81,2.85,27.17-3.39,33.89-15.49c6.61-11.9,4.77-26.9-5.03-36.93c-13.04-13.35-26.36-26.42-39.56-39.6
		c-16.27-16.25-32.54-32.49-48.8-48.74C162.68,422.92,161.68,421.82,160.7,420.79z"/>
	<path d="M269.5,145.9c-11.3-11.35-21.71-21.8-32.83-32.96c4.97-4.73,10.5-9.54,15.49-14.85c8.77-9.31,11.1-20.41,6.86-32.38
		c-3.97-11.2-12.21-18.11-24.03-20.13c-13.78-2.36-26.81,4.1-33.16,16.08c-6.31,11.89-4.37,26.5,5.28,36.52
		c9.48,9.83,19.28,19.36,28.94,29.01c19.92,19.89,39.84,39.78,59.76,59.68c0.93,0.93,1.83,1.91,2.34,2.45
		c-10.55,10.58-20.96,21.02-31.68,31.76c-0.25-0.21-1.27-0.96-2.15-1.84c-29.24-29.19-58.44-58.41-87.7-87.58
		c-17.87-17.82-25.49-39.21-23.1-64.36c3.14-32.99,31.76-62.59,64.73-66.62c42.79-5.22,78.82,20.62,86.8,62.84
		c3.57,18.88,0.35,37.15-10.55,53.01C287.23,127.1,277.85,136.23,269.5,145.9z"/>
	<path d="M146.16,341.53c-11.37,11.44-21.78,21.92-32.57,32.78c-11.98-12.11-24.13-24.45-36.36-36.71
		c-18-18.05-36.26-35.84-54.04-54.1C1.1,260.81-5.53,233.77,4.69,203.93c10.12-29.53,31.98-46.65,62.81-50.85
		c23.52-3.21,44.45,3.97,61.95,20.26c5.71,5.31,11.09,10.97,16.45,16.3c-10.85,10.8-21.31,21.22-32.37,32.22
		c-4.5-4.71-9.08-9.76-13.92-14.53c-13.15-12.95-32.68-13.03-45.16-0.32c-12.34,12.57-12.04,31.79,0.91,44.77
		c28.71,28.78,57.49,57.49,86.27,86.19C143.04,339.37,144.77,340.45,146.16,341.53z"/>
	<path d="M421.42,298.02c-10.74-10.8-21.06-21.18-32.17-32.34c4.49-4.26,9.25-8.58,13.8-13.11c13.69-13.63,14.26-33.02,1.43-45.85
		c-12.77-12.77-32.15-12.15-45.9,1.57c-28.67,28.59-57.3,57.22-85.95,85.83c-1.28,1.27-2.6,2.49-3.71,3.55
		c-10.58-10.7-20.96-21.2-31.67-32.04c9.81-9.78,20.15-20.09,30.47-30.41c20.28-20.25,40.37-40.69,60.85-60.73
		c40.64-39.76,108.91-23.56,126.33,30.23c9.06,27.99,3.49,53.64-16.08,75.83C433.47,286.65,427.37,292.1,421.42,298.02z"/>
	<path d="M37.96,312.57c10.61,10.66,20.95,21.04,31.9,32.05c-4.75,4.58-9.7,9.2-14.46,14c-13.05,13.15-13.29,32.65-0.66,45.15
		c12.5,12.37,31.9,12.22,44.82-0.62c28.6-28.43,57.09-56.97,85.59-85.51c1.74-1.74,3.09-3.88,4.44-5.6
		c11.33,11.35,21.77,21.81,32.85,32.91c-4.4,4.19-9.27,8.65-13.96,13.32c-25.85,25.76-51.45,51.77-77.53,77.3
		c-21.29,20.84-47.01,27.44-75.49,19.23c-28.36-8.18-46.51-27.53-53.15-56.29c-5.87-25.45,0.18-48.6,17.77-68.23
		C25.62,324.1,31.87,318.57,37.96,312.57z"/>
	<path d="M313.14,420.74c10.97-10.93,21.33-21.25,32.49-32.36c4.84,5.1,9.66,10.55,14.89,15.58c8.93,8.59,19.69,11.04,31.39,7.36
		c11.55-3.63,18.83-11.83,21.19-23.72c2.24-11.26-1.2-20.97-9.36-29.11c-28.9-28.81-57.74-57.68-86.65-86.48
		c-1.28-1.27-3.03-2.06-4.14-2.8c11.4-11.43,21.81-21.86,32.44-32.53c0.42,0.36,1.34,1.03,2.13,1.82
		c29.7,29.65,59.54,59.18,89.05,89.02c31.38,31.73,29.69,81.5-3.44,111.28c-28.98,26.04-74.15,25.57-102.84-1.18
		C324.46,432.19,318.92,426.45,313.14,420.74z"/>
	<path d="M161.56,267.52c9.93-9.99,20.34-20.46,30.61-30.79c35.17,35.27,70.54,70.74,105.61,105.91
		c-10.07,10.07-20.51,20.51-30.74,30.74C232.18,338.4,196.84,302.93,161.56,267.52z"/>
	<path d="M343.16,312.87c10.66,10.65,21.1,21.08,31.31,31.29c-35.11,35.21-70.48,70.67-105.5,105.8
		c-10.45-10.47-20.95-21-31.27-31.34C272.52,383.69,307.9,348.23,343.16,312.87z"/>
	<path d="M221.14,191.9c-34.78,34.91-70.05,70.31-104.96,105.35c-10.34-10.36-20.76-20.8-30.84-30.89
		c34.86-34.99,70.29-70.56,104.98-105.38C200.64,171.32,211.13,181.85,221.14,191.9z"/>
</g>
</svg>
