<?xml version="1.0" encoding="utf-8"?>
<!-- Generator: Adobe Illustrator 27.1.1, SVG Export Plug-In . SVG Version: 6.00 Build 0)  -->
<svg version="1.1" id="Layer_1" xmlns="http://www.w3.org/2000/svg" xmlns:xlink="http://www.w3.org/1999/xlink" x="0px" y="0px"
	 viewBox="0 0 311.27 498" style="enable-background:new 0 0 311.27 498;" xml:space="preserve">
<g>
	<path d="M146.38,342.39c-2.04-4.65-2.85-8.88-5.32-11.61c-4.21-4.64-0.41-8.33,0.66-12.1c0.4-1.42,4-1.92,6.01-2.78
		c-6.77-9.08-21.41-14.3-29.89-10.26c2.36-9.65,2.36-9.65,9.97-11.75c0.69-4.53-2-10.07-6.73-11.08c-4.58-0.98-9.53-0.21-14.51-0.21
		c1.04-4.48,1.93-8.26,2.76-11.85c7.36,0,14.33,0,21.54,0c0,1.73-0.56,3.53,0.09,4.33c4.31,5.27,1.7,10.32-0.28,15.31
		c-0.94,2.37-0.76,3.42,1.53,5.14c3.46,2.6,6.17,6.19,9.14,9.43c1.62,1.77,3.11,3.66,4.66,5.5c0.49-0.18,0.98-0.35,1.47-0.53
		c-0.54-3.39-0.86-6.83-1.67-10.14c-1.7-6.96-1.31-14.34-5.59-20.88c-1.12-1.71,1.89-6.42,3.51-9.48c0.49-0.93,2.69-0.96,4.74-1.61
		c0,32.5,0,64.2,0,95.9c-0.47,0-0.94,0.01-1.41,0.01c0-3.98,0-7.96,0-11.24c-10.69,0.56-20.57,1.09-30.99,1.64
		c0.7-3.62,1.12-6.18,1.73-8.7c0.16-0.69,0.98-1.83,1.31-1.77c2.93,0.55,4.51-0.22,4.28-3.5c-0.31-4.27-1.89-8.46-5.95-9.47
		c-4.29-1.07-9.06-0.24-13.52-0.24c0.73-2.75,1.72-6.5,2.74-10.24c0.13-0.46,0.48-1.21,0.75-1.23c5.08-0.25,10.39-1.33,15.14-0.16
		c2.17,0.53,4.27,5.45,4.55,8.54c0.35,3.95-0.94,8.13-1.96,12.1c-0.8,3.12-0.39,3.47,2.94,3.12
		C133.65,341.96,139.33,342.39,146.38,342.39z"/>
	<path d="M150,435.59c-1.27-0.71-2.86-1.14-3.77-2.17c-8.9-9.99-20.12-13.76-33.12-12.04c-2.98,0.39-5.72,2.62-9.57,4.49
		c2.63-4.82,4.08-10.89,7.89-13.51c4-2.75,10.27-2.18,15.58-3.06c-0.82-8.14-3.65-10.27-18.04-12.58c0.86-3.45,1.7-6.85,2.59-10.47
		c6.63,0,12.94,0,19.25,0c6.09,0,12.19,0,18.46,0c-3.8-8.64-24.64-16.59-34.49-11.54c1.03-4.54,1.99-8.76,2.88-12.64
		c3.87,0,7.55-0.32,11.15,0.07c7.57,0.82,12.39,5.39,15.65,12.06c0.94,1.92,2.8,3.38,4.12,5.15c0.63,0.85,1.47,1.95,1.38,2.86
		c-0.42,4.2-0.69,8.51-1.94,12.5c-0.49,1.56-3.32,2.47-5.2,3.47c-0.65,0.35-1.64,0.06-2.47,0.06c-8.81,0.01-10.41,1.45-10.55,10.32
		c-0.02,1.17,1.67,2.46,2.72,3.53c2.16,2.21,4.84,4.04,6.58,6.52c3.86,5.51,7.27,11.33,10.86,17.02L150,435.59z"/>
	<path d="M125.76,251.02c-1.3,4.04-1.94,6.95-3.15,9.6c-2.69,5.92-7.56,8.22-12.63,6.69c-8.28-2.49-9.49-9.49-8.22-15.74
		c0.62-3.05,1.83-5.98,2.79-8.96c1.4-4.33,4.39-6.42,8.93-6.41c1.45,0,2.9-0.14,4.84-0.23c-3.06-9-10.21-9.75-17.32-9.94
		c1.48-8.16,2.93-16.17,4.19-23.08c0,2.62,0,6.53,0,11.27c7.93,0.5,15.42,0.96,23.37,1.46c-2.3,4.15-0.91,9.2-5.97,12.48
		c-3.86,2.49-1.44,6.51,2.23,9.51c5.77,4.73,10.49,10.76,15.57,16.32c1.43,1.57,2.59,3.4,3.87,5.1c0.6-0.23,1.19-0.46,1.79-0.69
		c-0.97-8.96-1.61-17.97-3.12-26.83c-0.41-2.44-3.4-4.44-5.57-7.08c1.24-10.18,1.96-10.9,9.62-10.02c0,16.82,0,33.52,0,50.18
		c-7.33-9.56-17.77-14.72-29.3-17.88c-2.95-0.81-6.25-0.69-9.35-0.47c-3.36,0.24-3.78,2.08-1.72,4.68
		C111.75,257.48,118.32,257.78,125.76,251.02z"/>
	<path d="M149.94,435.61c-0.51,6.56-1.54,13.12-1.43,19.67c0.19,10.58,6.29,27.05,6.89,37.63c0.08,1.49,0.01,2.99,0.01,5.09
		c-3.02-3.6-10.64-13.1-13.75-15.99c-3.73-3.47-7.97-6.4-12.06-9.48c-3.57-2.69-5.79-2.41-7.5,2.42c-2.61,7.42-8.73,9.41-15.54,5.92
		c-3.72-1.91-4.78-4.96-3.81-8.72c0.65-2.55,2.31-4.9,2.62-7.45c0.37-3.09,1.03-7.41-0.62-9.24c-4.88-5.44-2.94-10.48-0.84-15.97
		c2.89-0.31,5.84-0.62,9.83-1.04c-1.71,7.19-3.07,14.27-5.11,21.13c-1.82,6.1,0.39,11.16,6.71,11.98c2.65,0.34,6.12-0.66,8.15-2.34
		c1.17-0.98,0.59-4.6,0.11-6.88c-0.46-2.2-1.72-4.26-2.78-6.31c-1.03-2-3.41-4.09-3.13-5.8c0.57-3.49,2.07-7.07,4.12-9.96
		c0.9-1.27,4.06-0.95,5.08-1.14c0.54,6.49,1.01,12.32,1.52,18.14c0.06,0.63,0.14,1.36,0.49,1.86c6.2,8.83,17.6,23.54,24.71,33.6
		c-0.42-6.16-5.56-17.08-6.34-21.96c-1.15-7.21-0.56-15.06-7.15-20.58c-0.89-0.74-0.19-3.63,0.11-5.47c0.35-2.08,1.08-4.1,1.58-5.93
		c2.77-1.5,6.93,1.5,8.16-3.18C150,435.59,149.94,435.61,149.94,435.61z"/>
	<path d="M44.23,63.22c4.08,9.51,7.9,18.41,11.72,27.32c-0.12,0.08-0.25,0.17-0.37,0.25c-2.39-3.8-4.34-7.98-7.27-11.31
		c-4.75-5.4-9.96-10.43-15.38-15.16c-1.4-1.22-4.39-1.21-6.48-0.84c-1.58,0.28-2.59,1.35-4.35-0.12c-1.45-1.21-5.28-1.38-5.32-2.17
		c-0.16-2.85,0.58-5.85,1.54-8.6c0.28-0.79,2.44-1.26,3.76-1.3c4.64-0.15,9.3-0.06,13.96-0.06C35.52,40.62,18.69,30.4,3.51,31.35
		c0.39-1.3,0.71-2.52,1.12-3.7c2.63-7.66,3.86-8.43,11.86-7.43c10.75,1.34,19.42,10.7,19.93,21.36c0.12,2.44,0.33,4.98,1.16,7.24
		c0.4,1.09,2.28,2.19,3.56,2.28c3.96,0.29,7.96,0.11,11.93,0.11C53.57,59.45,52.33,61.38,44.23,63.22z"/>
	<path d="M109.3,149.4c11.12,0,22.48,0,35.23,0c-2.03,8.54-3.82,16.91-6.03,25.16c-2.6,9.69-10.09,12.86-19.78,10.3
		c-3.46-0.91-6.79-2.33-10.79-3.73c-0.72,2.45-1.42,4.87-2.31,7.89C102.19,175.25,102.66,162.33,109.3,149.4z M107.01,161.22
		c2.18,3.49,3.39,6.21,5.28,8.32c5.12,5.71,17.22,7.91,23.23,4.79c2.78-1.44,3.68-3.77,2.68-6.12c-1.1-2.58-3.14-6.49-5.06-6.67"/>
	<path d="M217.49,115.16c1.19-1.95,2.38-3.91,3.45-5.66c-5.61-9.86-10.88-19.72-16.74-29.23c-4.63-7.51-11.32-12.86-19.84-15.65
		c-4.91-1.61-8.59,0.49-12.34,5.36c0.51-2.9,0.79-4.47,1.07-6.04c-7.77-2.8-0.74-7.46-2.08-12.27c12.59,0,24.41,0,36.67,0
		c-1.6,3.35-0.17,8.64-5.9,10.96c-0.82,0.34-1.34,3.63-0.72,4.96c3.84,8.35,7.97,16.56,12.15,24.75c2.07,4.06,4.47,7.96,7.1,12.61
		c0.92-1.36,2.02-2.24,1.96-3.03c-0.85-10.38-1.82-20.75-2.89-31.1c-0.15-1.43-0.64-3.1-1.57-4.12c-4.39-4.83-2.31-10.07,0.07-14.3
		c1.13-2.01,5.77-2.04,10.18-3.38c-5.85,13.56-6.12,26.13-5.49,38.69c0.55,10.88,1.83,21.72,2.74,32.57c0.14,1.65,0,3.33-0.01,4.99
		l0.15-0.09c-1-4.33-2-8.67-3.12-13.54C220.61,112.92,219.05,114.04,217.49,115.16z"/>
	<path d="M140.72,117.42c-5.06,0.32-8.85,0.65-12.65,0.77c-3.28,0.1-3.58,2.17-3.7,4.73c-0.27,5.75-0.7,11.49-1.53,17.2
		c-0.48-4.53-0.96-9.07-1.44-13.6c-0.8-7.51-2.37-8.8-10.51-8.37c-3.17,8.29-5.38,17.76-16.84,18.19
		c0.27-6.36,2.38-11.71,10.26-13.17c2.01-0.37,3.71-2.5,5.55-3.82c-0.2-0.54-0.41-1.09-0.61-1.63c-3.85-0.27-7.71-0.54-12.08-0.84
		c0.77-3.58,1.5-6.91,2.22-10.27c15.32,0,30.39,0,45.79,0c-0.98,10.94-1.97,21.88-2.95,32.82c-0.17,0-0.34,0.01-0.51,0.01
		C141.4,132.25,141.07,125.06,140.72,117.42z"/>
	<path d="M225.32,125.29c1.94,9.39,5.48,18.77-0.17,28.15c-0.44,0.73-0.34,2.26,0.15,3c4.45,6.77,9.05,13.46,12.81,20.71
		c-4.27-2.45-8.4-5.22-12.86-7.27c-4.47-2.06-9.26-3.42-14.17-5.19c1.19-8.13,2.04-8.93,10.9-9.24c0.29-6.38-6.75-11.52-18.47-9.45
		c0.4-2.64,0.59-5.23,1.24-7.7c0.69-2.67,1.53-4.28,5.49-3.46c4.48,0.93,9.41-0.28,14.15-0.56c0.03-0.82,0.07-1.64,0.1-2.46
		c-5.32-0.76-10.65-1.53-16.71-2.39c2.59-4.12,5.14-8.19,7.7-12.25c2.72,2.91,5.4,5.84,8.2,8.67c0.19,0.19,1.18-0.41,1.8-0.65
		L225.32,125.29z"/>
	<path d="M284.75,99.72c-0.37-12.34-12.19-21.21-21.74-17.2c1.23,5.9,2.44,11.73,3.8,18.31c-11.18-10.46-25.61-14.06-34.56-8.6
		c1.58-5.58,3.03-10.69,4.36-15.42c0.87,0.63,1.69,1.71,2.59,1.79c6.64,0.56,13.29,0.91,19.94,1.34c0.07,0.45,0.14,0.89,0.21,1.34
		c0.43-0.64,1.07-1.23,1.26-1.93c1.35-5.22,4.16-8.45,10.05-8.17c6.68,0.32,12.28,2.49,15.7,8.59
		C290.2,86.59,287.71,92.97,284.75,99.72z"/>
	<path d="M117.82,84.54c0.54-0.96,1.57-2.42,2.25-4.03c2.27-5.4,6.27-7.42,12.82-6.28c6.46,1.12,10.76,5.08,10.4,10.57
		c-0.38,5.65-1.62,11.24-3.43,16.69c0-2.36,0.48-4.85-0.1-7.06c-1.44-5.52-10.38-11.1-16.05-9.8c-2.88,0.66-5.71,2.35-4.64,6.62
		c0.79,3.16,0.89,6.49,1.16,8.6c-3.66-2.45-7.53-5.76-11.99-7.83c-4.48-2.08-9.54-3.23-15.14,0.81c1.29-5.37,2.35-9.76,3.23-13.42
		c3.85,0,7.57-0.61,10.98,0.17C110.7,80.35,113.76,82.54,117.82,84.54z"/>
	<path d="M35.38,95.21c-2.25,9.99-7.19,14.19-14.88,15.14C9.1,111.76,0.31,95.8,2.56,86.34c0.98-4.13,1.37-8.42,1.76-12.66
		c0.13-1.38-0.12-3.39-1.02-4.17c-5.54-4.81-2.86-9.94-0.98-15.11c0.21-0.59,0.3-1.22,0.48-1.99c3.07-0.19,6-0.37,9.26-0.57
		c0.06,0.3,0.39,0.95,0.26,1.49c-1.84,7.44-3.81,14.85-5.61,22.31c-3.24,13.4,7.56,25.52,21.13,23.46c2.68-0.41,5.11-2.49,7.65-3.79
		L35.38,95.21z"/>
	<path d="M285.28,51.23c-0.78,2.99-1.13,5.82-2.31,8.25c-0.59,1.23-2.62,2.36-4.09,2.48c-7.78,0.6-15.59,0.83-23.38,1.28
		c-2.29,0.13-4.56,0.9-6.83,0.83c-4.55-0.14-9.08-0.66-14.8-1.12c1.13-3.74,2.09-7.24,3.33-10.63c0.21-0.59,1.63-1.04,2.49-1.05
		C254.81,51.22,269.94,51.23,285.28,51.23z"/>
	<path d="M143.24,51.21c-0.82,9.76-5.46,12.87-15.53,11.53c-4.39-0.58-8.94-0.53-13.36-0.14c-6.79,0.59-11.97,4.15-15.98,9.8
		c1.24-2.79,2.48-5.59,3.88-8.75c-2.17-0.52-4.32-1.04-6.35-1.53c-0.17-0.54-0.4-0.88-0.33-1.14c2.67-9.77,2.68-9.77,12.82-9.77
		C120,51.2,131.6,51.21,143.24,51.21z"/>
	<path d="M203.71,105.25c-8.48-11.9-32.05-19.75-39.42-10.97c1.18-4.51,1.46-8.66,3.38-11.79c1.17-1.9,4.81-2.78,7.47-3.16
		c10.35-1.45,16.32,1.94,21.05,11.31C198.67,95.53,201.21,100.38,203.71,105.25z"/>
	<path d="M40.44,27.35c-7.8,0.19-11.64-4.97-8.86-10.95c2.14-4.61,5.18-8.8,7.39-13.37c1.96-4.04,5.24-3.11,8.08-2.37
		c2.99,0.78,6.7,2.83,5.61,6.28c-2.09,6.66-5.2,13.03-8.32,19.3C43.84,27.26,41.12,27.17,40.44,27.35z M47.25,16.66
		c-1.45-4.92-5.22-6.98-10.61-6.08C38.17,15.76,41.02,17.46,47.25,16.66z"/>
	<path d="M259.58,135.45c0.72-2.62,1.34-4.65,1.83-6.72c1.29-5.42,2.52-6.04,7.84-5.3c3.11,0.43,6.34-0.14,9.51-0.06
		c3.04,0.08,6.07,0.41,8.92,0.62c-0.59,8.16-1.12,15.56-1.65,22.97c-0.51,0.15-1.03,0.31-1.54,0.46
		C280.71,133.99,270.66,133.6,259.58,135.45z"/>
	<path d="M118.59,31.13c-1.32,0-2.69,0.21-3.97-0.04c-5.55-1.06-7.8-6.08-4.64-10.69c2.8-4.07,5.66-8.17,9.08-11.68
		c1.3-1.33,4.62-2.03,6.34-1.34c3.62,1.45,8.08,4.18,6.62,8.55c-1.75,5.25-5.34,9.95-8.54,14.6c-0.69,0.99-3.17,0.75-4.82,1.07
		C118.65,31.45,118.62,31.29,118.59,31.13z M125.53,22.51c-2.57-5.01-5.27-7.41-10.62-7.12C116.74,20.7,120.46,21.55,125.53,22.51z"
		/>
	<path d="M81.65,23.04c-4.6,10.49-14.28,13.89-25.82,14.17c-6.13,0.15-12.03,1.2-17.02,5.46c3.34-13.33,8.54-14.07,23.18-16.25
		C68.71,25.42,75.4,24.13,81.65,23.04z"/>
	<path d="M99.5,24.54c5.15,11.8,26.51,14.67,34.33,5.47c-0.98,10.69-6.9,15.74-14.48,15.18C100.29,43.79,100.55,42.19,99.5,24.54z"
		/>
	<path d="M35.49,95.3c0.21-5.1-1.82-8.98-6.48-11.18c-5.66-2.67-11.31-3.38-17.58,2.01c1.71-4.54,2.1-8.91,4.49-11
		c2.68-2.35,7.14-3.6,10.85-3.65c6.98-0.09,15.39,6.4,11.56,15.72c-1.08,2.63-1.97,5.34-2.94,8.02
		C35.38,95.21,35.49,95.3,35.49,95.3z"/>
	<path d="M145.6,206.27c-8.86-5.7-18.5-5.47-25.56,0.76c1.26-4.33,1.52-8.44,3.56-11.26c1.84-2.54,5.45-4.19,8.61-5.23
		c2.07-0.68,4.73,0.39,7.12,0.7c6.86,0.89,8.24,2.79,7.1,9.74C146.16,202.56,145.93,204.15,145.6,206.27z"/>
	<path d="M311.27,50.8c-1.63,11.22-3.23,22.17-4.48,30.76c-1.12-3.23-1.93-9.62-5.29-14.08c-3.39-4.49-3.17-8.18-2.08-12.76
		c0.64-2.66,1.93-3.84,4.81-3.57C306.48,51.36,308.78,50.95,311.27,50.8z"/>
	<path d="M91.49,51.3c-2.07,7.45-4.07,14.66-6.1,21.98c-2.93-3.34-5.77-6.34-8.28-9.59c-0.61-0.79-0.4-2.49-0.1-3.65
		c0.81-3.16,1.87-6.25,2.87-9.53C83.78,50.77,87.49,51.03,91.49,51.3z"/>
	<path d="M296.62,167.03c-7.91-4.81-14.17-13.39-24.59-7.59c0.91-7.99,2.18-9.53,9.52-10.78c1.04-0.18,2.63-0.27,3.19,0.33
		C289.61,154.19,294.72,159.3,296.62,167.03z"/>
	<path d="M164.61,52.05c-2.03,7.33-3.85,13.91-5.42,19.6c-2.36-2.29-5.52-4.75-7.83-7.85c-1.08-1.45-1.06-4.28-0.54-6.22
		c0.57-2.17,0.02-5.72,4.14-5.55C157.92,52.16,160.89,52.05,164.61,52.05z"/>
	<path d="M103.86,288.02c-1.91,8.74,4.75,11.8,10.6,15.83c-0.63,1.89-1.32,3.86-1.94,5.86c-1.67,5.37-3.09,5.55-7.15,1.66
		c-5.54-5.3-5.93-11.36-3.52-18.07C102.49,291.53,103.19,289.78,103.86,288.02z"/>
	<path d="M72.29,51.29c-1.7,13.45-3.35,26.59-4.66,36.92c-0.26-3.2-0.58-9.39-1.32-15.54c-0.37-3.04-1.59-5.97-2.27-8.99
		c-0.39-1.74-0.94-3.63-0.62-5.3C64.91,50.73,65.01,50.75,72.29,51.29z"/>
	<path d="M106.87,356.58c-7.89-5.25-7.1-12.32-5.11-19.71C106.26,342.51,112.56,347.61,106.87,356.58z"/>
	<path d="M260.02,163.68c-8.72-7.94-6.48-15.3-3.6-21.58c1.59,2.75,4.46,5.9,5.17,9.48C262.28,155.03,260.74,158.92,260.02,163.68z"
		/>
	<path d="M200.38,170.24c-6.26-5.18-6.4-7.12-1.79-15.53c1.56,2.24,3.33,4.8,5.38,7.76C202.98,164.62,201.7,167.4,200.38,170.24z"/>
	<path d="M68.89,115.89c0.44-2.63,0.62-3.66,0.79-4.7c0.16,0.01,0.32,0.02,0.47,0.03c0,2.68,0,5.36,0,8.04
		c-0.27,0.14-0.53,0.28-0.8,0.42c-2.06-4.17-4.12-8.35-6.17-12.52c0.34-0.18,0.67-0.36,1.01-0.54
		C65.54,109.27,66.88,111.93,68.89,115.89z"/>
</g>
</svg>
